<?xml version="1.0" encoding="UTF-8"?>
<!DOCTYPE svg PUBLIC "-//W3C//DTD SVG 1.1//EN" "http://www.w3.org/Graphics/SVG/1.1/DTD/svg11.dtd">
<!-- Creator: CorelDRAW 2021 (64-Bit) -->
<svg xmlns="http://www.w3.org/2000/svg" xml:space="preserve" width="220mm" height="90mm" version="1.1" style="shape-rendering:geometricPrecision; text-rendering:geometricPrecision; image-rendering:optimizeQuality; fill-rule:evenodd; clip-rule:evenodd"
viewBox="0 0 22000 9000"
 xmlns:xlink="http://www.w3.org/1999/xlink"
 xmlns:xodm="http://www.corel.com/coreldraw/odm/2003">
 <defs>
  <style type="text/css">
   <![CDATA[
    .fil0 {fill:#1565D7}
    .fil3 {fill:#FEFEFE}
    .fil1 {fill:#373435;fill-rule:nonzero}
    .fil2 {fill:#1565D7;fill-rule:nonzero}
   ]]>
  </style>
 </defs>
 <g id="Capa_x0020_1">
  <metadata id="CorelCorpID_0Corel-Layer"/>
  <rect class="fil0" x="440.42" y="960.17" width="6468.83" height="6827.02" rx="1136.04" ry="1193.57"/>
  <path class="fil1" d="M9345.69 6860.67l0 -1315.54 973.79 0 0 222.32 -707.38 0 0 292.14 657.77 0 0 222.32 -657.77 0 0 356.44 733.1 0 0 222.32 -999.51 0zm1410.93 -426.26l259.06 -25.73c15.62,86.67 46.85,150.05 94.32,190.78 47.46,40.73 111.46,60.94 192,60.94 85.13,0 149.44,-18.07 192.62,-54.2 43.17,-36.14 64.91,-78.39 64.91,-126.78 0,-31.23 -9.18,-57.57 -27.25,-79.62 -18.07,-21.74 -49.91,-40.72 -95.23,-56.65 -30.93,-11.02 -101.36,-30.01 -211.61,-57.57 -141.78,-35.52 -241.3,-79 -298.56,-130.75 -80.54,-72.58 -120.65,-161.08 -120.65,-265.5 0,-67.06 18.98,-130.15 56.65,-188.63 37.97,-58.49 92.48,-102.89 163.83,-133.52 71.35,-30.62 157.09,-45.93 258.14,-45.93 164.44,0 288.46,36.44 371.45,109.63 83.29,73.18 126.78,170.56 131.06,292.75l-266.41 9.18c-11.33,-67.98 -35.52,-116.67 -72.57,-146.37 -37.06,-29.71 -92.79,-44.71 -166.9,-44.71 -76.55,0 -136.57,15.92 -179.75,47.77 -27.87,20.52 -41.95,47.77 -41.95,82.07 0,31.23 13.17,57.87 39.5,79.92 33.38,28.48 114.53,57.88 243.45,88.5 128.92,30.32 224.15,62.16 285.7,94.62 61.86,32.77 110.25,77.17 145.15,133.82 34.91,56.66 52.37,126.47 52.37,209.46 0,75.33 -20.82,146.07 -62.78,211.91 -41.95,65.84 -101.05,114.83 -177.61,146.68 -76.55,32.15 -172.09,48.08 -286.32,48.08 -166.27,0 -293.97,-38.28 -383.08,-115.14 -89.11,-76.56 -142.09,-188.33 -159.54,-335.01zm2392.07 -58.8l257.23 79.01c-39.51,144.84 -105.35,252.33 -197.21,322.76 -91.87,70.12 -208.23,105.34 -349.4,105.34 -174.86,0 -318.48,-59.72 -431.17,-179.14 -112.38,-119.43 -168.73,-282.65 -168.73,-489.96 0,-218.95 56.66,-389.21 169.65,-510.47 113,-121.27 261.82,-181.9 446.17,-181.9 161.07,0 291.83,47.77 392.27,143.01 60.02,56.34 104.73,137.18 134.74,242.83l-262.74 62.47c-15.62,-67.98 -48.08,-121.88 -97.38,-161.38 -49.61,-39.5 -109.63,-59.1 -180.06,-59.1 -97.68,0 -176.99,34.91 -237.63,105.03 -60.94,69.82 -91.25,183.13 -91.25,339.91 0,165.97 30.01,284.48 89.72,354.91 60.02,70.74 137.8,105.96 233.65,105.96 70.74,0 131.68,-22.36 182.51,-67.37 50.83,-45.02 87.58,-115.45 109.63,-211.91zm740.61 -830.48l266.41 0 0 712.89c0,113.31 3.37,186.49 9.8,219.87 11.33,53.9 37.97,97.38 80.23,129.84 42.56,32.77 100.44,49 173.93,49 74.42,0 130.76,-15.32 168.73,-46.24 37.98,-30.93 60.64,-68.6 68.29,-113.61 7.66,-45.02 11.64,-119.43 11.64,-223.55l0 -728.2 266.41 0 0 691.76c0,158.01 -7.04,269.79 -21.43,335.01 -14.4,65.23 -40.73,120.35 -79.32,165.36 -38.27,45.02 -89.72,80.54 -154.03,107.18 -64.61,26.64 -148.51,40.12 -252.32,40.12 -125.25,0 -220.18,-14.4 -284.79,-43.49 -64.61,-29.09 -115.75,-66.75 -153.42,-113.3 -37.66,-46.55 -62.16,-94.93 -74.11,-146.07 -17.45,-75.33 -26.02,-186.8 -26.02,-334.09l0 -702.48zm1582.11 1315.54l0 -1315.54 973.79 0 0 222.32 -707.38 0 0 292.14 657.77 0 0 222.32 -657.77 0 0 356.44 733.1 0 0 222.32 -999.51 0zm1488.1 0l0 -1304.51 266.41 0 0 1082.19 659.6 0 0 222.32 -926.01 0zm2555.28 0l-286.93 0 -113.61 -299.49 -527.62 0 -109.32 299.49 -281.73 0 510.78 -1315.54 281.42 0 527.01 1315.54zm-486.9 -521.8l-182.81 -486.9 -177.61 486.9 360.42 0z"/>
  <path class="fil2" d="M7433.76 4794.08l0 -3297.22 1067.61 0c404.47,0 667.73,16.11 790.53,49.12 188.81,49.89 346.92,157.34 474.32,323.12 127.41,165.78 191.11,379.92 191.11,642.41 0,202.62 -36.84,372.24 -109.75,510.39 -73.68,138.15 -166.55,246.37 -279.38,325.42 -112.82,78.29 -227.95,130.48 -344.61,155.81 -158.87,31.47 -388.36,47.58 -689.22,47.58l-432.88 0 0 1243.37 -667.73 0zm667.73 -2740.01l0 939.43 363.04 0c261.72,0 435.94,-17.65 524.2,-52.19 88.27,-34.54 157.34,-88.26 207.23,-162.71 49.89,-73.68 75.22,-158.88 75.22,-257.12 0,-120.5 -35.31,-219.51 -105.15,-297.79 -70.61,-78.29 -158.88,-127.41 -267.09,-147.36 -79.06,-14.59 -237.93,-22.26 -477.4,-22.26l-320.05 0zm5160.5 2740.01l-719.15 0 -284.75 -750.62 -1322.42 0 -274 750.62 -706.11 0 1280.21 -3297.22 705.34 0 1320.88 3297.22zm-1220.34 -1307.84l-458.2 -1220.34 -445.16 1220.34 903.36 0zm1528.65 239.47l649.31 -64.47c39.14,217.2 117.43,376.08 236.39,478.15 118.97,102.08 279.38,152.74 481.23,152.74 213.37,0 374.55,-45.28 482.77,-135.85 108.22,-90.57 162.71,-196.48 162.71,-317.75 0,-78.29 -23.03,-144.29 -68.31,-199.55 -45.28,-54.5 -125.1,-102.08 -238.7,-141.99 -77.51,-27.63 -254.04,-75.22 -530.35,-144.29 -355.35,-89.03 -604.79,-198.02 -748.32,-327.73 -201.85,-181.9 -302.4,-403.71 -302.4,-665.43 0,-168.09 47.59,-326.19 141.99,-472.79 95.17,-146.59 231.79,-257.88 410.62,-334.63 178.83,-76.75 393.73,-115.13 647.01,-115.13 412.15,0 723,91.33 930.99,274.77 208.76,183.43 317.75,427.5 328.5,733.74l-667.74 23.02c-28.4,-170.38 -89.03,-292.42 -181.9,-366.87 -92.87,-74.44 -232.55,-112.05 -418.29,-112.05 -191.88,0 -342.31,39.91 -450.53,119.73 -69.84,51.42 -105.15,119.73 -105.15,205.69 0,78.29 33,145.06 99.01,200.32 83.66,71.38 287.05,145.06 610.17,221.81 323.12,75.99 561.82,155.81 716.09,237.16 155.04,82.13 276.3,193.42 363.8,335.41 87.49,141.98 131.24,316.98 131.24,524.97 0,188.81 -52.19,366.1 -157.34,531.12 -105.15,165.01 -253.28,287.82 -445.15,367.64 -191.88,80.59 -431.34,120.5 -717.63,120.5 -416.75,0 -736.8,-95.94 -960.15,-288.59 -223.35,-191.88 -356.12,-472.02 -399.87,-839.65zm3351.48 1068.37l0 -3297.22 667.74 0 0 3297.22 -667.74 0zm1430.41 0l0 -3297.22 1402.24 0c352.29,0 608.64,29.93 768.28,89.03 160.41,59.1 287.81,164.25 383.75,315.44 95.94,151.97 144.29,324.66 144.29,519.61 0,247.9 -72.14,452.06 -217.2,613.24 -145.06,161.18 -361.5,262.49 -650.08,304.7 143.52,83.66 261.72,175.76 354.59,276.3 93.63,100.55 219.51,279.38 377.61,535.73l402.18 643.17 -795.91 0 -477.39 -719.92c-171.16,-255.59 -288.58,-416.76 -352.29,-483.54 -62.93,-66 -129.71,-112.05 -200.32,-136.61 -71.38,-24.56 -183.43,-36.84 -336.94,-36.84l-135.08 0 0 1376.91 -667.73 0zm667.73 -1901.89l492.74 0c319.29,0 518.07,-13.81 597.89,-40.68 79.06,-26.86 141.99,-73.68 186.51,-139.68 45.28,-66.01 67.54,-148.9 67.54,-247.91 0,-111.29 -29.93,-200.32 -89.03,-269.4 -59.1,-68.3 -142.76,-111.29 -250.21,-128.94 -54.49,-7.67 -216.44,-11.51 -485.83,-11.51l-519.61 0 0 838.12z"/>
  <path class="fil3" d="M1304.75 3844.88l0 3243.86c321.6,26.73 723.61,-169.3 884.37,-320.84 366.33,-338.65 303.74,-499.05 321.64,-873.35 44.69,-8.89 142.89,44.56 187.58,62.42 214.41,80.18 500.25,71.24 714.67,17.79 348.36,-89.1 616.42,-267.34 839.76,-481.23 348.41,-347.57 553.82,-802.09 509.2,-1327.85 -62.58,71.29 -62.58,240.61 -375.22,534.7 -151.89,142.6 -410.95,240.62 -634.3,258.45 -580.69,35.62 -964.76,-302.99 -1134.49,-677.3 -107.2,-231.7 -125.1,-499.06 -53.58,-775.32 196.48,-659.49 929.02,-1007.03 1563.27,-712.94 35.73,17.83 116.21,62.39 151.89,71.29 8.94,-160.39 0,-231.7 53.61,-374.3 142.93,-347.54 393.07,-463.39 795.08,-481.22 -35.75,-80.19 -384.18,-267.37 -518.13,-329.74 -848.73,-401.02 -1867.12,-178.24 -2537.12,418.84 -187.58,169.32 -250.12,249.55 -384.09,445.6 -419.91,597.07 -348.41,1194.17 -384.14,1301.14z"/>
  <path class="fil3" d="M4770.89 3506.21c8.95,80.21 35.7,142.56 62.54,213.87 160.78,490.14 98.31,1131.79 -187.58,1541.75 -53.63,71.27 -169.77,249.51 -241.25,302.99 -482.38,401.04 -401.99,329.73 -1045.22,588.18 125.1,53.45 571.76,8.91 714.69,-17.83 160.79,-26.73 446.68,-106.96 580.69,-178.2 89.29,-53.5 169.75,-89.15 250.12,-142.62 250.14,-160.41 241.18,-187.16 419.87,-338.61 53.6,-35.69 44.68,-62.41 89.37,-98.08 196.51,-169.3 410.9,-597.05 491.28,-846.6 142.93,-472.31 134.04,-1007.02 -17.81,-1479.35 -17.92,-44.56 -44.69,-89.12 -53.65,-124.76 -9.19,6.79 -88.91,347.82 -366.26,507.95 -312.66,187.16 -482.4,98.04 -696.79,71.31z"/>
  <path class="fil3" d="M4719.37 2163.16c142.83,-71.29 71.41,23.72 214.28,23.72 95.23,0 142.82,-23.72 166.62,-71.23 23.88,-23.78 47.66,-23.78 71.44,-23.78l119.08 23.78c23.75,23.79 23.75,23.79 23.75,23.79 0,47.44 0,94.98 71.46,142.48 71.47,71.27 119.1,47.47 166.74,47.47 42.97,0 102.25,68.69 119.01,118.79 23.82,71.25 -23.8,71.25 -47.55,142.5 -21.61,107.46 17.15,173.12 93.03,223.24 25.03,16.53 24.15,29.86 15.71,60.65 -49.42,180.25 -90.09,123.32 -156.41,167.38 -142.88,71.27 -71.43,213.76 -119.06,261.29 0,0 -95.28,47.55 -95.28,47.55 -71.4,23.72 -166.6,-95.08 -285.72,-23.8 -23.78,23.8 -71.38,95.04 -95.22,95.04l-142.85 -23.75c0,0 -23.79,-23.77 -23.79,-23.77 -21.19,-63.38 -23.54,-107.98 -57.3,-150.44l-561.73 387.95c-23.88,23.77 -71.42,47.53 -71.42,47.53l238.07 190.04c-47.68,23.74 -238.07,94.97 -285.74,118.73 -23.78,23.76 -71.44,23.76 -95.24,47.51l-238.12 94.97c-71.43,23.84 -404.72,237.58 -500,261.32 0,-23.74 619.08,-475.08 666.68,-522.53l47.64 -47.55 -214.32 -190.02c0,0 261.92,-261.23 285.72,-261.23 0,0 47.64,-47.55 119.08,-118.79 47.65,-23.72 119.06,-94.99 166.62,-142.5 88.91,-73.92 154.2,-144.29 190.83,-186.92 2.62,-14.35 2.97,-30.88 -0.33,-50.6 -23.75,-118.8 -47.62,-71.26 -95.2,-142.5 -47.62,-47.54 0,-142.53 23.8,-190.05 53.24,-53.15 138.28,-14.74 190.48,-118.77 47.63,-118.74 -47.64,-142.54 95.24,-237.5zm428.56 190.02c214.26,23.73 380.94,237.5 333.31,475 -47.58,213.78 -261.87,380.09 -476.16,332.54 -238.12,-23.71 -380.98,-237.47 -333.32,-475.04 23.78,-213.78 238.06,-380.01 476.17,-332.5z"/>
  <path class="fil3" d="M5100.26 2519.43c142.89,23.74 238.18,142.51 214.29,285.05 -23.77,142.49 -142.83,237.48 -285.68,213.76 -142.87,-23.75 -238.09,-166.26 -214.27,-285.05 23.81,-142.51 142.83,-237.5 285.66,-213.76z"/>
 </g>
</svg>
